# xmcd
#
# Track frame offsets:
#	150
#	11981
#	24666
#	37835
#	50065
#	61911
#	71376
#	84101
#	96816
#	108415
#	119871
#	130356
#	145028
#	155859
#	167475
#	178204
#	190191
#	201194
#	214535
#	229387
#
# Disc length: 3208
#
# Revision: 1
# Processed by: cddbd v1.5.1PL0 Copyright (c) Steve Scherf et al.
# Submitted via: VisiTrax 2.9.10.228 - For more info visit www.synapsa.com
# Normalized: r0:DSETVAR1
#
DISCID=200c8614
DTITLE=Various Artist - Classic Country: Kings Of Country
DYEAR=2005
DGENRE=COUNTRY
TTITLE0=Ernest Tubb - Walking The Floor Over Y ou
TTITLE1=Hank Snow - I'm Moving On
TTITLE2=Lefty Frizzell - If You've Got The Money I've Got The Time
TTITLE3=Hank Williams - Your Cheatin' Heart
TTITLE4=Tennessee Ernie Ford - Sixteen Tons
TTITLE5=Webb Pierce - In The Jailhouse Now
TTITLE6=Porter Wagoner - A Satisfied Mind
TTITLE7=Johnny Cash - Folsom Prison Blues
TTITLE8=Ray Price - Crazy Arms
TTITLE9=Don Gibson - 10: Oh Lonesome Me
TTITLE10=Jim Reeves - He'll Have To Go
TTITLE11=Marty Robbins - Don't Worry
TTITLE12=Faron Young - Hello Walls
TTITLE13=George Jones - She Thinks I Still Care
TTITLE14=Buck Owens - Act Naturally
TTITLE15=Eddy Arnold - Make The World Go Away
TTITLE16=Conway Twitty - Hello Darlin'
TTITLE17=Charlie Rich - Behind Closed Doors
TTITLE18=Waylon Jennings - Luckenbach, Texas (Back To The Basics Of Love)
TTITLE19=Willie Nelson - On The Road Again
EXTD=Notes: Personnel: Ernest Tubb, Hank Williams, Johnny Cash, Marty Robbins, Porter Wagoner, Webb Pierce (vocals, guitar) - Conway Twitty, Don Gibson, Eddy Arnold, Faron Young, George Jones, Hank Snow, Jim Reeves, Lefty Frizzell, Ray Price
EXTD=, Tennessee Ernie Ford, Waylon Jennings, Willie Nelson, Buck Owens, Charlie Rich (vocals) - Grady Martin, Fay "Smitty" Smith (electric guitar).\n\nProducers: Si Siman - Jack Clement - Chet Akins.\n\nRecording information: 1941 - 1980.\n\n
EXTD=Original Release: 2005\nNumber of Discs: 1\nRecord Label PN: 192382\nRecorded: Studio\nChannels: Stereo
EXTT0=
EXTT1=
EXTT2=
EXTT3=
EXTT4=
EXTT5=
EXTT6=
EXTT7=
EXTT8=
EXTT9=
EXTT10=
EXTT11=
EXTT12=
EXTT13=
EXTT14=
EXTT15=
EXTT16=
EXTT17=
EXTT18=
EXTT19=Release: 01/25/2005
PLAYORDER=
